<?xml version="1.0" standalone="no"?>
<!DOCTYPE svg PUBLIC "-//W3C//DTD SVG 20010904//EN"
 "http://www.w3.org/TR/2001/REC-SVG-20010904/DTD/svg10.dtd">
<svg version="1.0" xmlns="http://www.w3.org/2000/svg"
 width="700.000000pt" height="700.000000pt" viewBox="0 0 700.000000 700.000000"
 preserveAspectRatio="xMidYMid meet">
<metadata>
Created by potrace 1.14, written by Peter Selinger 2001-2017
</metadata>
<g transform="translate(0.000000,700.000000) scale(0.100000,-0.100000)"
fill="#000000" stroke="none">
<path d="M1747 5242 l-1747 -1747 1747 -1747 1748 -1748 1753 1753 1752 1752
-1741 1743 c-958 958 -1747 1742 -1753 1742 -6 0 -797 -787 -1759 -1748z
m2834 189 c588 -588 1069 -1073 1069 -1078 0 -4 -132 -140 -293 -301 l-293
-293 -1069 1071 c-589 589 -1072 1073 -1075 1076 -4 4 580 594 588 594 2 0
485 -481 1073 -1069z m-1331 -365 c0 -6 -486 -494 -1081 -1086 l-1080 -1077
-295 295 c-162 162 -292 298 -289 301 3 3 490 491 1082 1084 l1077 1078 293
-293 c161 -161 293 -297 293 -302z m527 -518 l261 -261 -658 -659 c-362 -362
-662 -658 -666 -658 -10 0 -524 513 -524 524 0 11 1302 1315 1315 1316 5 0
128 -118 272 -262z m2446 -762 l279 -279 -1079 -1079 -1078 -1078 -297 297
-297 297 1077 1077 c1033 1033 1078 1076 1096 1061 11 -10 145 -143 299 -296z
m-2063 -938 c-362 -362 -661 -658 -665 -658 -11 0 -525 513 -525 524 0 5 296
305 658 667 l657 658 267 -266 266 -266 -658 -659z m-1144 -682 l1074 -1074
-296 -296 c-163 -163 -298 -295 -300 -294 -2 2 -487 486 -1078 1077 l-1075
1074 292 293 c161 161 296 293 300 294 5 0 492 -483 1083 -1074z"/>
</g>
</svg>
